
<svg width="555px" height="152px" viewBox="0 0 555 152" version="1.1" xmlns="http://www.w3.org/2000/svg" xmlns:xlink="http://www.w3.org/1999/xlink">
    <!-- Generator: Sketch 44.1 (41455) - http://www.bohemiancoding.com/sketch -->
    <desc>Created with Sketch.</desc>
    <defs></defs>
    <g id="Page-1" stroke="none" stroke-width="1" fill="none" fill-rule="evenodd">
        <g id="Installation---detail" transform="translate(-594.000000, -177.000000)">
            <g id="illustrations" transform="translate(595.000000, 178.000000)">
                <g id="Page-1" transform="translate(0.000000, 34.000000)">
                    <polygon id="Stroke-1" stroke="#000000" stroke-width="3" stroke-linecap="round" stroke-linejoin="round" points="144.7346 115.1004 17.9546 115.1004 17.9546 44.3894 81.5056 15.5064 144.7346 44.3894"></polygon>
                    <polygon id="Stroke-3" stroke="#000000" stroke-width="3" stroke-linecap="round" stroke-linejoin="round" points="30.247 88.05 50.287 88.05 50.287 61.85 30.247 61.85"></polygon>
                    <path d="M26.1291,88.0496 L54.4051,88.0496" id="Stroke-4" stroke="#000000" stroke-width="3" stroke-linecap="round" stroke-linejoin="round"></path>
                    <path d="M30.2468,74.949 L50.2868,74.949" id="Stroke-5" stroke="#000000" stroke-width="3" stroke-linecap="round" stroke-linejoin="round"></path>
                    <polygon id="Stroke-6" stroke="#000000" stroke-width="3" stroke-linecap="round" stroke-linejoin="round" points="112.402 88.05 132.442 88.05 132.442 61.85 112.402 61.85"></polygon>
                    <path d="M108.2844,88.0496 L136.5604,88.0496" id="Stroke-7" stroke="#000000" stroke-width="3" stroke-linecap="round" stroke-linejoin="round"></path>
                    <path d="M112.4021,74.949 L132.4421,74.949" id="Stroke-8" stroke="#000000" stroke-width="3" stroke-linecap="round" stroke-linejoin="round"></path>
                    <g id="Group-23" transform="translate(0.000000, 0.600000)">
                        <polygon id="Stroke-9" stroke="#000000" stroke-width="3" stroke-linecap="round" stroke-linejoin="round" points="64.437 114.494 98.253 114.494 98.253 59.813 64.437 59.813"></polygon>
                        <path d="M73.2297,85.3519 C73.2297,86.5099 72.2907,87.4499 71.1327,87.4499 C69.9747,87.4499 69.0357,86.5099 69.0357,85.3519 C69.0357,84.1939 69.9747,83.2539 71.1327,83.2539 C72.2907,83.2539 73.2297,84.1939 73.2297,85.3519 Z" id="Stroke-11" stroke="#000000" stroke-width="3" stroke-linecap="round" stroke-linejoin="round"></path>
                        <path d="M92.1052,40.4379 C92.1052,46.3809 87.2882,51.1989 81.3442,51.1989 C75.4012,51.1989 70.5842,46.3809 70.5842,40.4379 C70.5842,34.4949 75.4012,29.6769 81.3442,29.6769 C87.2882,29.6769 92.1052,34.4949 92.1052,40.4379 Z" id="Stroke-12" stroke="#000000" stroke-width="3" stroke-linecap="round" stroke-linejoin="round"></path>
                        <path d="M81.3445,29.6771 L81.3445,51.1981" id="Stroke-13" stroke="#000000" stroke-width="3" stroke-linecap="round" stroke-linejoin="round"></path>
                        <path d="M70.5837,40.4379 L92.1047,40.4379" id="Stroke-14" stroke="#000000" stroke-width="3" stroke-linecap="round" stroke-linejoin="round"></path>
                        <polygon id="Stroke-15" stroke="#000000" stroke-width="3" stroke-linecap="round" stroke-linejoin="round" points="128.71 35.522 144.821 35.522 144.821 19.411 128.71 19.411"></polygon>
                        <polygon id="Stroke-16" stroke="#000000" stroke-width="3" stroke-linecap="round" stroke-linejoin="round" points="126.259 19.386 147.272 19.386 147.272 8.503 126.259 8.503"></polygon>
                        <polygon id="Fill-17" fill="#FFFFFF" points="154.2473 39.5922 81.3303 6.5212 8.4213 39.5922 8.4143 53.9632 17.8873 53.9632 17.8873 44.4202 81.3343 15.6412 144.8023 44.4292 144.8023 53.9632 154.2753 53.9632"></polygon>
                        <path d="M18.5969,34.9764 L15.3749,27.9174" id="Stroke-19" stroke="#0CC9C7" stroke-width="3" stroke-linecap="round" stroke-linejoin="round"></path>
                        <path d="M11.2131,29.5165 L73.0991,0.8995" id="Stroke-20" stroke="#0CC9C7" stroke-width="3" stroke-linecap="round" stroke-linejoin="round"></path>
                        <path d="M71.4787,10.6888 L68.0717,3.2248" id="Stroke-21" stroke="#0CC9C7" stroke-width="3" stroke-linecap="round" stroke-linejoin="round"></path>
                        <polygon id="Stroke-18" stroke="#000000" stroke-width="3" stroke-linecap="round" stroke-linejoin="round" points="154.2473 39.5922 81.3303 6.5212 8.4213 39.5922 8.4143 53.9632 17.8873 53.9632 17.8873 44.4202 81.3343 15.6412 144.8023 44.4292 144.8023 53.9632 154.2753 53.9632"></polygon>
                        <path d="M0.5002,114.5004 L162.1892,114.5004" id="Stroke-22" stroke="#000000" stroke-width="3" stroke-linecap="round" stroke-linejoin="round"></path>
                    </g>
                </g>
                <g id="Page-1" transform="translate(413.000000, 0.000000)">
                    <polygon id="Stroke-1" stroke="#000000" stroke-width="3" stroke-linecap="round" stroke-linejoin="round" points="18.541 148.777 120.906 148.777 120.906 8.377 18.541 8.377"></polygon>
                    <polygon id="Stroke-3" stroke="#000000" stroke-width="3" stroke-linecap="round" stroke-linejoin="round" points="77.776 46.886 101.188 46.886 101.188 20.089 77.776 20.089"></polygon>
                    <path d="M77.7763,33.4878 L101.1883,33.4878" id="Stroke-4" stroke="#000000" stroke-width="3" stroke-linecap="round" stroke-linejoin="round"></path>
                    <polygon id="Stroke-5" stroke="#000000" stroke-width="3" stroke-linecap="round" stroke-linejoin="round" points="37.363 46.886 60.775 46.886 60.775 20.089 37.363 20.089"></polygon>
                    <path d="M37.3633,33.4878 L60.7753,33.4878" id="Stroke-6" stroke="#000000" stroke-width="3" stroke-linecap="round" stroke-linejoin="round"></path>
                    <polygon id="Stroke-7" stroke="#000000" stroke-width="3" stroke-linecap="round" stroke-linejoin="round" points="77.776 86.896 101.188 86.896 101.188 60.1 77.776 60.1"></polygon>
                    <path d="M77.7763,73.4981 L101.1883,73.4981" id="Stroke-8" stroke="#000000" stroke-width="3" stroke-linecap="round" stroke-linejoin="round"></path>
                    <polygon id="Stroke-9" stroke="#000000" stroke-width="3" stroke-linecap="round" stroke-linejoin="round" points="77.776 126.437 101.188 126.437 101.188 99.64 77.776 99.64"></polygon>
                    <path d="M77.7763,113.0381 L101.1883,113.0381" id="Stroke-10" stroke="#000000" stroke-width="3" stroke-linecap="round" stroke-linejoin="round"></path>
                    <polygon id="Stroke-11" stroke="#0CC9C7" stroke-width="3" stroke-linecap="round" stroke-linejoin="round" points="37.363 86.896 60.775 86.896 60.775 60.1 37.363 60.1"></polygon>
                    <path d="M37.3633,73.4981 L60.7753,73.4981" id="Stroke-12" stroke="#0CC9C7" stroke-width="3" stroke-linecap="round" stroke-linejoin="round"></path>
                    <g id="Group-19" transform="translate(0.000000, 0.277000)">
                        <polygon id="Stroke-13" stroke="#000000" stroke-width="3" stroke-linecap="round" stroke-linejoin="round" points="33.877 148.495 64.262 148.495 64.262 99.363 33.877 99.363"></polygon>
                        <path d="M41.7783,122.3099 C41.7783,123.3509 40.9343,124.1949 39.8933,124.1949 C38.8533,124.1949 38.0093,123.3509 38.0093,122.3099 C38.0093,121.2689 38.8533,120.4249 39.8933,120.4249 C40.9343,120.4249 41.7783,121.2689 41.7783,122.3099 Z" id="Stroke-15" stroke="#000000" stroke-width="3" stroke-linecap="round" stroke-linejoin="round"></path>
                        <path d="M0.5,148.5004 L138.947,148.5004" id="Stroke-16" stroke="#000000" stroke-width="3" stroke-linecap="round" stroke-linejoin="round"></path>
                        <polygon id="Fill-17" fill="#FFFFFF" points="9.42 8.1 130.028 8.1 130.028 0.223 9.42 0.223"></polygon>
                        <polygon id="Stroke-18" stroke="#000000" stroke-width="3" stroke-linecap="round" stroke-linejoin="round" points="9.42 8.1 130.028 8.1 130.028 0.223 9.42 0.223"></polygon>
                    </g>
                </g>
                <path d="M166.76517,110.934711 C166.76517,110.934711 215.614308,72.1655535 266.998047,102.456847 C320.982927,134.281543 337.682035,134.432087 408.267942,85.6014841" id="Path-2" stroke="#0CC9C7" stroke-width="3" stroke-dasharray="5"></path>
                <polygon id="Triangle-2" fill="#0CC9C7" transform="translate(415.191833, 81.123423) rotate(55.000000) translate(-415.191833, -81.123423) " points="415.191833 75.8448537 420.191833 86.4019933 410.191833 86.4019933"></polygon>
            </g>
        </g>
    </g>
</svg>
