<?xml version="1.0" encoding="utf-8"?>
<!-- Generator: Adobe Illustrator 21.1.0, SVG Export Plug-In . SVG Version: 6.00 Build 0)  -->
<svg version="1.1" id="Livello_1" xmlns="http://www.w3.org/2000/svg" xmlns:xlink="http://www.w3.org/1999/xlink" x="0px" y="0px"
	 viewBox="0 0 49 34" style="enable-background:new 0 0 49 34;" xml:space="preserve">
<style type="text/css">
	.st0{fill:none;stroke:#FFFFFF;stroke-linecap:round;stroke-miterlimit:10;}
</style>
<title>48px</title>
<g id="Banknote_2">
	<path class="st0" d="M24.5,22c1.8,0,3.3-1.1,3.3-2.5c0-0.7-0.3-1.3-0.8-1.7c-0.4-0.3-0.9-0.6-1.5-0.6l-1.7-0.3
		c-0.4-0.1-0.8-0.2-1.2-0.4c-0.8-0.4-1.4-1.1-1.4-2c0-1.4,1.5-2.5,3.3-2.5c1.3-0.1,2.6,0.6,3.2,1.8"/>
	<line class="st0" x1="24.5" y1="11" x2="24.5" y2="11.8"/>
	<line class="st0" x1="24.5" y1="22.2" x2="24.5" y2="23"/>
	<path class="st0" d="M24.5,22c-1.8,0-3.3-1.1-3.3-2.5"/>
	<path class="st0" d="M48.5,30.3c0,0.5-0.4,0.9-0.9,0.9c-0.1,0-0.1,0-0.2,0c-2.6-0.5-5.2-0.9-7.8-1c-13.2-0.6-19.3,4.4-31.2,3
		c-2.5-0.3-4.9-0.8-7.3-1.6c-0.4-0.1-0.6-0.4-0.6-0.8V2.6c0-0.5,0.4-0.9,0.9-0.9c0.1,0,0.1,0,0.2,0c2.2,0.5,4.3,0.8,6.5,1
		C20,3.9,25.9,0.2,38.8,0.5c3,0.1,6,0.3,9,0.8c0.4,0.1,0.8,0.4,0.8,0.9L48.5,30.3L48.5,30.3z"/>
	<path class="st0" d="M39.8,4.1c1.5,0.1,3.2,0.3,5.1,0.6"/>
	<path class="st0" d="M4.6,6C6.3,6.4,8,6.7,9.8,6.9"/>
	<path class="st0" d="M39.8,26.3c1.5,0.1,3.2,0.3,5.1,0.6"/>
	<path class="st0" d="M4.6,28.4c1.7,0.4,3.4,0.7,5.2,0.9"/>
</g>
</svg>
