<?xml version="1.0" encoding="utf-8"?>
<!-- Generator: Adobe Illustrator 21.1.0, SVG Export Plug-In . SVG Version: 6.00 Build 0)  -->
<svg version="1.1" id="Livello_1" xmlns="http://www.w3.org/2000/svg" xmlns:xlink="http://www.w3.org/1999/xlink" x="0px" y="0px"
	 viewBox="0 0 62 62" style="enable-background:new 0 0 62 62;" xml:space="preserve">
<style type="text/css">
	.st0{fill:none;stroke:#0FAEAC;stroke-width:2;stroke-linejoin:round;}
	.st1{fill:none;stroke:#0FAEAC;stroke-width:2;stroke-linecap:round;stroke-linejoin:round;}
</style>
<title>64px</title>
<g id="Pen_3">
	<line class="st0" x1="53.3" y1="20.3" x2="41" y2="7.7"/>
	<path class="st1" d="M56.1,17.5L21.3,52.9c-0.3,0.3-0.6,0.5-0.8,0.6L4.2,58.6c-0.3,0.1-0.6,0-0.8-0.4c-0.1-0.2-0.1-0.3,0-0.5
		l5.1-16.6c0.1-0.4,0.3-0.7,0.6-0.8L43.7,4.9c3.4-3.6,8.9-3.6,12.4-0.2c3.4,3.4,3.5,9.1,0.2,12.6C56.2,17.4,56.2,17.4,56.1,17.5z"/>
	<line class="st0" x1="9" y1="40.3" x2="21.3" y2="52.9"/>
	<line class="st0" x1="47.1" y1="26.6" x2="34.8" y2="14"/>
</g>
</svg>
