<?xml version="1.0" encoding="utf-8"?>
<!-- Generator: Adobe Illustrator 21.1.0, SVG Export Plug-In . SVG Version: 6.00 Build 0)  -->
<svg version="1.1" id="Livello_1" xmlns="http://www.w3.org/2000/svg" xmlns:xlink="http://www.w3.org/1999/xlink" x="0px" y="0px"
	 viewBox="0 0 49 43.7" style="enable-background:new 0 0 49 43.7;" xml:space="preserve">
<style type="text/css">
	.st0{fill:none;stroke:#FFFFFF;stroke-linecap:round;stroke-linejoin:round;}
</style>
<title>48px</title>
<g id="Like">
	<line class="st0" x1="44" y1="28.6" x2="40.3" y2="28.6"/>
	<path class="st0" d="M44,21.2c2,0,3.6,1.6,3.6,3.7c0,2-1.6,3.6-3.6,3.6"/>
	<path class="st0" d="M42.2,28.6c2,0,3.7,1.6,3.7,3.6c0,2-1.6,3.7-3.7,3.7h-3.7"/>
	<path class="st0" d="M13.2,21.1c2.4-2.6,4.6-5.4,6.7-8.3c0.6-0.9,1.2-1.8,1.7-2.8c0.3-0.7,0.6-1.5,0.7-2.3c0.3-2.2,0.5-4.3,0.5-6.5
		c0.4-0.4,0.8-0.6,1.4-0.7c2-0.3,3.9,2.2,4.7,3.8c0.4,0.8,0.6,1.6,0.8,2.4c0.3,1.6,0.6,3-0.7,7.5l16.1-0.3c2,0,3.6,1.7,3.6,3.7
		c0,0.2,0,0.4-0.1,0.6c-0.3,1.8-1.9,3-3.7,3h-3.6"/>
	<path class="st0" d="M38.9,35.9c2,0,3.6,1.7,3.6,3.7c0,0.2,0,0.4-0.1,0.6c-0.3,1.8-1.9,3-3.7,3H24.9c-2,0-4-0.4-5.9-1.1l-6-3.9"/>
	<path class="st0" d="M2.3,15.6h8.9c1,0,1.8,0.8,1.8,1.8v23.1c0,1-0.8,1.8-1.8,1.8H2.3c-1,0-1.8-0.8-1.8-1.8V17.4
		C0.5,16.4,1.3,15.6,2.3,15.6z"/>
</g>
</svg>
