<?xml version="1.0" encoding="utf-8"?>
<!-- Generator: Adobe Illustrator 21.1.0, SVG Export Plug-In . SVG Version: 6.00 Build 0)  -->
<svg version="1.1" id="Livello_1" xmlns="http://www.w3.org/2000/svg" xmlns:xlink="http://www.w3.org/1999/xlink" x="0px" y="0px"
	 viewBox="0 0 34.5 49.5" style="enable-background:new 0 0 34.5 49.5;" xml:space="preserve">
<style type="text/css">
	.st0{fill:none;stroke:#F8E71C;stroke-miterlimit:10;}
	.st1{fill:#F8E71C;stroke:#F8E71C;stroke-miterlimit:10;}
</style>
<title>48px</title>
<g id="Flash">
	<path class="st0" d="M18,19.3h15.5c0.1,0,0.2,0.1,0.2,0.3c0,0,0,0.1,0,0.1L17.2,48.6c-0.1,0.1-0.2,0.1-0.3,0.1
		c-0.1,0-0.1-0.1-0.1-0.2V29.6H1c-0.1,0-0.3-0.1-0.3-0.2c0,0,0-0.1,0-0.1l16-28.3c0.1-0.1,0.2-0.2,0.3-0.1c0.1,0,0.1,0.1,0.1,0.2
		l0.5,18.1C17.7,19.2,17.8,19.3,18,19.3C18,19.3,18,19.3,18,19.3z"/>
</g>
<rect x="11.5" y="10.8" class="st1" width="5.8" height="18.4"/>
<rect x="17.2" y="19.8" class="st1" width="4.5" height="20.3"/>
<rect x="22.3" y="19.8" class="st1" width="3.5" height="12.7"/>
<rect x="26.4" y="19.8" class="st1" width="3.7" height="5.8"/>
<rect x="6.6" y="19.4" class="st1" width="4.1" height="9.7"/>
<rect x="23.3" y="26.2" class="st1" width="4.1" height="4.1"/>
<rect x="22.3" y="19.3" transform="matrix(0.866 0.5 -0.5 0.866 18.548 -8.1766)" class="st1" width="4.4" height="22.5"/>
<rect x="29.7" y="19.4" class="st1" width="2.9" height="1.9"/>
<rect x="17.2" y="40.8" class="st1" width="3" height="1.9"/>
<rect x="7.8" y="6.3" transform="matrix(0.866 0.5 -0.5 0.866 10.3782 -2.4105)" class="st1" width="3.8" height="23.7"/>
<rect x="1.7" y="28.1" class="st1" width="2.7" height="1.2"/>
<rect x="17.2" y="43.2" class="st1" width="0.5" height="4.2"/>
<rect x="17" y="43.3" transform="matrix(0.5 -0.866 0.866 0.5 -28.9875 38.3059)" class="st1" width="3.5" height="1.9"/>
<rect x="16.3" y="2.3" class="st1" width="0.6" height="5.8"/>
<rect x="15.4" y="3.6" class="st1" width="0.5" height="4"/>
<rect x="14.7" y="5.2" class="st1" width="0.3" height="2.1"/>
</svg>
